<?xml version="1.0" encoding="utf-8"?>
<!-- Generator: Adobe Illustrator 16.0.0, SVG Export Plug-In . SVG Version: 6.00 Build 0)  -->
<!DOCTYPE svg PUBLIC "-//W3C//DTD SVG 1.1//EN" "http://www.w3.org/Graphics/SVG/1.1/DTD/svg11.dtd">
<svg version="1.1" id="图层_1" xmlns="http://www.w3.org/2000/svg" xmlns:xlink="http://www.w3.org/1999/xlink" x="0px" y="0px"
	 width="101px" height="91px" viewBox="0 0 101 91" enable-background="new 0 0 101 91" xml:space="preserve">
<g>
	<polygon fill="#2962AE" points="27.841,30.83 19.689,30.83 19.689,18.793 31.43,18.793 	"/>
	<polygon fill="#51B33F" points="31.43,30.83 19.689,30.83 31.43,18.793 31.43,18.793 	"/>
	<polyline fill="#51B33F" points="19.689,30.83 31.43,18.793 31.43,18.793 	"/>
</g>
<g>
	<polygon fill="#2962AE" points="72.259,54.274 80.408,54.274 80.408,66.311 68.67,66.311 	"/>
	<polygon fill="#51B33F" points="68.67,54.274 80.408,54.274 68.67,66.311 68.67,66.311 	"/>
	<polyline fill="#51B33F" points="80.408,54.274 68.67,66.311 68.67,66.311 	"/>
</g>
<polygon fill="#2962AE" points="47.523,7.581 44.335,7.581 36.719,7.581 36.737,34.75 48.59,43.694 48.59,24.089 65.688,42.276 
	82.323,44.628 54.458,14.962 48.588,7.581 "/>
<polygon fill="#2962AE" points="48.59,24.089 48.588,7.581 82.323,44.628 "/>
<polygon fill="#51B33F" points="82.323,44.628 48.59,24.089 65.688,42.276 "/>
<polygon fill="#2962AE" points="53.841,81.141 57.029,81.141 64.645,81.141 64.627,53.971 52.775,45.026 52.775,64.632 
	35.675,46.446 19.04,44.093 46.905,73.759 52.776,81.141 "/>
<polygon fill="#2962AE" points="52.775,64.632 52.776,81.141 19.04,44.093 "/>
<polygon fill="#51B33F" points="19.04,44.093 52.775,64.632 35.675,46.446 "/>
</svg>
