<?xml version="1.0" encoding="utf-8"?>
<!-- Generator: Adobe Illustrator 16.0.0, SVG Export Plug-In . SVG Version: 6.00 Build 0)  -->
<!DOCTYPE svg PUBLIC "-//W3C//DTD SVG 1.1//EN" "http://www.w3.org/Graphics/SVG/1.1/DTD/svg11.dtd">
<svg version="1.1" id="图层_1" xmlns="http://www.w3.org/2000/svg" xmlns:xlink="http://www.w3.org/1999/xlink" x="0px" y="0px"
	 width="680.071px" height="108px" viewBox="0 0 680.071 108" enable-background="new 0 0 680.071 108" xml:space="preserve">
<text transform="matrix(1 0 0 1 104.2324 59.0791)" fill="#383A3A" font-family="'PingFang-SC-Bold'" font-size="43.0043" letter-spacing="2">西安市“多测合一”信息平台</text>
<text transform="matrix(1 0 0 1 104.2334 85.7969)"><tspan x="0" y="0" fill="#383A3A" font-family="'PingFang-SC-Bold'" font-size="16.641">Xi &apos;an City Integration of multiple measurements Information Platform</tspan><tspan x="551.438" y="0" fill="#383A3A" font-family="'PingFang-SC-Bold'" font-size="23.9718">  </tspan></text>
<g>
	<polygon fill="#2962AE" points="31.912,40.83 23.761,40.83 23.761,28.793 35.501,28.793 	"/>
	<polygon fill="#51B33F" points="35.501,40.83 23.761,40.83 35.501,28.793 35.501,28.793 	"/>
	<polyline fill="#51B33F" points="23.761,40.83 35.501,28.793 35.501,28.793 	"/>
</g>
<g>
	<polygon fill="#2962AE" points="76.33,64.274 84.479,64.274 84.479,76.311 72.741,76.311 	"/>
	<polygon fill="#51B33F" points="72.741,64.274 84.479,64.274 72.741,76.311 72.741,76.311 	"/>
	<polyline fill="#51B33F" points="84.479,64.274 72.741,76.311 72.741,76.311 	"/>
</g>
<polygon fill="#2962AE" points="51.595,17.581 48.406,17.581 40.79,17.581 40.809,44.75 52.661,53.694 52.661,34.089 69.76,52.276 
	86.395,54.628 58.529,24.962 52.659,17.581 "/>
<polygon fill="#2962AE" points="52.661,34.089 52.659,17.581 86.395,54.628 "/>
<polygon fill="#51B33F" points="86.395,54.628 52.661,34.089 69.76,52.276 "/>
<polygon fill="#2962AE" points="57.912,91.141 61.101,91.141 68.716,91.141 68.698,63.971 56.847,55.026 56.847,74.632 
	39.746,56.446 23.111,54.093 50.977,83.759 56.848,91.141 "/>
<polygon fill="#2962AE" points="56.847,74.632 56.848,91.141 23.111,54.093 "/>
<polygon fill="#51B33F" points="23.111,54.093 56.847,74.632 39.746,56.446 "/>
</svg>
