<?xml version="1.0" encoding="utf-8"?>
<!-- Generator: Adobe Illustrator 16.0.0, SVG Export Plug-In . SVG Version: 6.00 Build 0)  -->
<!DOCTYPE svg PUBLIC "-//W3C//DTD SVG 1.1//EN" "http://www.w3.org/Graphics/SVG/1.1/DTD/svg11.dtd">
<svg version="1.1" id="图层_1" xmlns="http://www.w3.org/2000/svg" xmlns:xlink="http://www.w3.org/1999/xlink" x="0px" y="0px"
	 width="35px" height="35px" viewBox="0 0 35 35" enable-background="new 0 0 35 35" xml:space="preserve">
<g>
	<g>
		<defs>
			<rect id="SVGID_1_" x="2.697" y="1.31" width="30" height="31.584"/>
		</defs>
		<clipPath id="SVGID_2_">
			<use xlink:href="#SVGID_1_"  overflow="visible"/>
		</clipPath>
		<path clip-path="url(#SVGID_2_)" fill="#1890FF" d="M17.696,1.344c-0.298,0-0.584,0.119-0.795,0.329
			c-0.211,0.211-0.329,0.497-0.329,0.795v2.25c0,0.621,0.503,1.125,1.124,1.125s1.125-0.504,1.125-1.125v-2.25
			c0-0.298-0.118-0.584-0.329-0.795C18.281,1.462,17.995,1.344,17.696,1.344L17.696,1.344z M17.696,1.344"/>
		<path clip-path="url(#SVGID_2_)" fill="#1890FF" d="M31.571,3.571L3.822,3.61c-0.622,0-1.125,0.504-1.125,1.125
			c0,0.621,0.503,1.125,1.125,1.125l27.749-0.04c0.401,0,0.772-0.214,0.975-0.563c0.2-0.349,0.2-0.777,0-1.125
			C32.344,3.785,31.973,3.571,31.571,3.571L31.571,3.571z M24.659,11.273l-13.9,0.017c-0.549,0-0.99,0.504-0.99,1.125
			c0,0.62,0.445,1.125,0.993,1.125l13.895-0.018c0.548,0,0.991-0.504,0.99-1.125c-0.002-0.621-0.445-1.125-0.994-1.125H24.659z
			 M17.655,17.845h-6.75c-0.621,0-1.124,0.504-1.124,1.126c0,0.62,0.503,1.124,1.124,1.124h6.75c0.621,0,1.125-0.504,1.125-1.124
			C18.78,18.349,18.276,17.845,17.655,17.845L17.655,17.845z M24.186,25.631l-2.552,1.189l2.438,5.201
			c0.329,0.703,1.167,1.008,1.87,0.678c0.704-0.33,1.008-1.167,0.679-1.87l-2.438-5.199L24.186,25.631z M10.947,25.646l-2.51,5.393
			c-0.184,0.395-0.152,0.856,0.082,1.225c0.235,0.367,0.642,0.59,1.077,0.589h0.287c0.496-0.001,0.947-0.289,1.157-0.739l2.454-5.28
			L10.947,25.646z M10.947,25.646"/>
	</g>
	<path fill="#1890FF" d="M28.645,5.83l0.02,15.75c0,2.071-1.68,3.75-3.751,3.75l-14.25,0.016c-0.994,0-1.947-0.395-2.651-1.098
		c-0.703-0.703-1.098-1.656-1.098-2.652L6.896,5.847l21.749-0.028 M30.895,3.569L4.646,3.601l0.02,18c0,3.313,2.687,6,6.001,6
		l14.249-0.017c3.313,0,5.999-2.687,5.999-6.001l-0.02-17.999V3.569z M30.895,3.569"/>
</g>
</svg>
