<?xml version="1.0" encoding="utf-8"?>
<!-- Generator: Adobe Illustrator 16.0.0, SVG Export Plug-In . SVG Version: 6.00 Build 0)  -->
<!DOCTYPE svg PUBLIC "-//W3C//DTD SVG 1.1//EN" "http://www.w3.org/Graphics/SVG/1.1/DTD/svg11.dtd">
<svg version="1.1" id="图层_1" xmlns="http://www.w3.org/2000/svg" xmlns:xlink="http://www.w3.org/1999/xlink" x="0px" y="0px"
	 width="35px" height="35px" viewBox="0 0 35 35" enable-background="new 0 0 35 35" xml:space="preserve">
<g>
	<path fill="#1890FF" d="M7.178,24.438h2.148c0.587,0,1.074,0.488,1.074,1.074s-0.487,1.074-1.074,1.074H7.178
		c-0.585,0-1.073-0.488-1.073-1.074C6.104,24.901,6.593,24.438,7.178,24.438L7.178,24.438z M12.378,24.438h2.147
		c0.586,0,1.073,0.488,1.073,1.074s-0.487,1.074-1.073,1.074h-2.147c-0.586,0-1.075-0.488-1.075-1.074
		C11.303,24.901,11.792,24.438,12.378,24.438L12.378,24.438z M7.252,19.824h2.146c0.587,0,1.075,0.487,1.075,1.073
		c0,0.587-0.488,1.075-1.075,1.075H7.252c-0.586,0-1.074-0.488-1.074-1.075C6.178,20.288,6.666,19.824,7.252,19.824L7.252,19.824z
		 M12.45,19.824h2.148c0.586,0,1.073,0.487,1.073,1.073c0,0.587-0.487,1.075-1.073,1.075H12.45c-0.586,0-1.074-0.488-1.074-1.075
		C11.376,20.288,11.864,19.824,12.45,19.824L12.45,19.824z M7.252,15.211h2.146c0.587,0,1.075,0.488,1.075,1.074
		c0,0.586-0.488,1.074-1.075,1.074H7.252c-0.586,0-1.074-0.488-1.074-1.074C6.178,15.675,6.666,15.211,7.252,15.211L7.252,15.211z
		 M12.45,15.211h2.148c0.586,0,1.073,0.488,1.073,1.074c0,0.586-0.487,1.074-1.073,1.074H12.45c-0.586,0-1.074-0.488-1.074-1.074
		C11.376,15.675,11.864,15.211,12.45,15.211L12.45,15.211z M7.252,10.231h2.146c0.587,0,1.075,0.489,1.075,1.074
		c0,0.586-0.488,1.074-1.075,1.074H7.252c-0.586,0-1.074-0.488-1.074-1.074C6.178,10.695,6.666,10.231,7.252,10.231L7.252,10.231z
		 M12.45,10.231h2.148c0.586,0,1.073,0.489,1.073,1.074c0,0.586-0.487,1.074-1.073,1.074H12.45c-0.586,0-1.074-0.488-1.074-1.074
		C11.376,10.695,11.864,10.231,12.45,10.231L12.45,10.231z M21.97,24.438h5.858c0.586,0,1.075,0.488,1.075,1.074
		s-0.489,1.074-1.075,1.074H21.97c-0.585,0-1.073-0.488-1.073-1.074C20.896,24.901,21.359,24.438,21.97,24.438L21.97,24.438z
		 M21.97,19.824h5.858c0.586,0,1.075,0.487,1.075,1.073c0,0.587-0.489,1.075-1.075,1.075H21.97c-0.585,0-1.073-0.488-1.073-1.075
		C20.896,20.288,21.359,19.824,21.97,19.824L21.97,19.824z M21.97,15.211h5.858c0.586,0,1.075,0.488,1.075,1.074
		c0,0.586-0.489,1.074-1.075,1.074H21.97c-0.585,0-1.073-0.488-1.073-1.074C20.896,15.675,21.359,15.211,21.97,15.211L21.97,15.211z
		 M21.97,15.211"/>
	<path fill="#1890FF" d="M32.905,30.003V11.305c0-1.171-0.951-2.148-2.147-2.148H18.919V5.423c0-1.171-0.952-2.148-2.148-2.148H5.03
		c-1.172,0-2.148,0.952-2.148,2.148v24.58H2.198c-0.585,0-1.073,0.488-1.073,1.073c0,0.587,0.488,1.075,1.073,1.075h30.977
		c0.585,0,1.073-0.488,1.073-1.075c0-0.585-0.488-1.073-1.073-1.073H32.905z M5.03,30.003V5.423h11.765v24.58H5.03z M19.017,30.003
		V11.305h11.766v18.698H19.017z M19.017,30.003"/>
</g>
</svg>
