<?xml version="1.0" encoding="utf-8"?>
<!-- Generator: Adobe Illustrator 16.0.0, SVG Export Plug-In . SVG Version: 6.00 Build 0)  -->
<!DOCTYPE svg PUBLIC "-//W3C//DTD SVG 1.1//EN" "http://www.w3.org/Graphics/SVG/1.1/DTD/svg11.dtd">
<svg version="1.1" id="图层_1" xmlns="http://www.w3.org/2000/svg" xmlns:xlink="http://www.w3.org/1999/xlink" x="0px" y="0px"
	 width="35px" height="35px" viewBox="0 0 35 35" enable-background="new 0 0 35 35" xml:space="preserve">
<g>
	<g>
		<path fill="#1890FF" d="M22.067,18.282c2.381,0.51,4.757,1.426,7.121,2.742c2.483,1.379,4.023,3.998,4.023,6.841v2.176
			c0,0.692-0.274,1.355-0.765,1.846c-0.489,0.489-1.153,0.766-1.846,0.766H4.493c-0.692,0-1.356-0.276-1.846-0.766
			c-0.489-0.49-0.764-1.153-0.764-1.846v-2.176c0-2.842,1.54-5.46,4.022-6.84c2.366-1.317,4.741-2.233,7.123-2.743
			c-3.154-2.009-4.603-5.859-3.557-9.449c1.046-3.59,4.337-6.059,8.077-6.059c3.741,0,7.03,2.468,8.077,6.059
			C26.67,12.423,25.221,16.273,22.067,18.282L22.067,18.282z M17.547,17.277c3.365,0,6.091-2.728,6.091-6.093
			c0-3.364-2.727-6.091-6.091-6.091c-3.364,0-6.092,2.728-6.092,6.091C11.456,14.55,14.184,17.277,17.547,17.277L17.547,17.277z
			 M4.204,27.865v2.176c0,0.159,0.13,0.29,0.29,0.29h26.108c0.076,0,0.15-0.03,0.206-0.085c0.054-0.055,0.084-0.128,0.084-0.205
			v-2.176c0-1.999-1.083-3.841-2.829-4.813c-3.527-1.96-7.027-2.934-10.515-2.934c-3.488,0-6.988,0.972-10.514,2.934
			C5.286,24.024,4.204,25.866,4.204,27.865L4.204,27.865z M4.204,27.865"/>
	</g>
</g>
</svg>
