<?xml version="1.0" encoding="utf-8"?>
<!-- Generator: Adobe Illustrator 16.0.0, SVG Export Plug-In . SVG Version: 6.00 Build 0)  -->
<!DOCTYPE svg PUBLIC "-//W3C//DTD SVG 1.1//EN" "http://www.w3.org/Graphics/SVG/1.1/DTD/svg11.dtd">
<svg version="1.1" id="图层_1" xmlns="http://www.w3.org/2000/svg" xmlns:xlink="http://www.w3.org/1999/xlink" x="0px" y="0px"
	 width="35px" height="35px" viewBox="0 0 35 35" enable-background="new 0 0 35 35" xml:space="preserve">
<g>
	<g>
		<path fill="#1890FF" d="M29.121,2.198C31.264,2.198,33,3.935,33,6.076V29.35c0,2.143-1.736,3.879-3.879,3.879H5.848
			c-2.143,0-3.88-1.736-3.88-3.879V6.076c0-2.142,1.737-3.878,3.88-3.878H29.121z M29.121,4.784H5.848
			c-0.714,0-1.294,0.578-1.294,1.292V29.35c0,0.714,0.58,1.293,1.294,1.293h23.273c0.713,0,1.293-0.579,1.293-1.293V6.076
			C30.414,5.362,29.834,4.784,29.121,4.784L29.121,4.784z M22.656,25.47c0.714,0.001,1.292,0.581,1.292,1.294
			c0,0.715-0.578,1.293-1.292,1.293H12.312c-0.714,0-1.292-0.578-1.292-1.293c0-0.713,0.578-1.293,1.292-1.294H22.656z
			 M17.484,6.076c0.299,0,0.572,0.177,0.698,0.451l1.979,4.197l4.418,0.67c0.293,0.049,0.535,0.26,0.625,0.545
			c0.092,0.291,0.016,0.607-0.195,0.827l-3.228,3.258l0.759,4.615c0.049,0.303-0.07,0.606-0.311,0.796
			c-0.228,0.186-0.548,0.209-0.804,0.062l-3.943-2.185l-3.941,2.185c-0.262,0.146-0.583,0.121-0.818-0.062
			c-0.24-0.19-0.358-0.493-0.311-0.796l0.758-4.615l-3.214-3.258c-0.207-0.221-0.283-0.536-0.194-0.827
			c0.078-0.292,0.327-0.508,0.625-0.545l4.42-0.67l1.978-4.197c0.126-0.274,0.398-0.45,0.698-0.451H17.484z M17.468,8.712
			l-1.458,3.103c-0.109,0.232-0.325,0.395-0.578,0.435l-3.26,0.499l2.365,2.418c0.184,0.191,0.267,0.457,0.225,0.718l-0.551,3.414
			l2.915-1.605c0.099-0.075,0.219-0.114,0.342-0.108c0.125,0,0.248,0.032,0.356,0.093l2.916,1.604l-0.551-3.414
			c-0.042-0.261,0.041-0.526,0.225-0.717l2.364-2.417l-3.257-0.5c-0.258-0.035-0.475-0.2-0.582-0.436L17.468,8.712z M17.468,8.712"
			/>
	</g>
</g>
</svg>
